<?xml version="1.0" encoding="UTF-8" standalone="no"?>
<svg
   viewBox="0 0 284.38782 325.28875"
   version="1.1"
   id="svg124"
   sodipodi:docname="FED3.svg"
   width="284.38782"
   height="325.28876"
   inkscape:version="1.1.2 (0a00cf5339, 2022-02-04)"
   inkscape:export-filename="/home/matias/Downloads/FED3.png"
   inkscape:export-xdpi="300"
   inkscape:export-ydpi="300"
   xmlns:inkscape="http://www.inkscape.org/namespaces/inkscape"
   xmlns:sodipodi="http://sodipodi.sourceforge.net/DTD/sodipodi-0.dtd"
   xmlns:xlink="http://www.w3.org/1999/xlink"
   xmlns="http://www.w3.org/2000/svg"
   xmlns:svg="http://www.w3.org/2000/svg">
  <sodipodi:namedview
     id="namedview126"
     pagecolor="#ffffff"
     bordercolor="#666666"
     borderopacity="1.0"
     inkscape:pageshadow="2"
     inkscape:pageopacity="0.0"
     inkscape:pagecheckerboard="0"
     showgrid="false"
     fit-margin-top="10"
     fit-margin-left="10"
     fit-margin-right="10"
     fit-margin-bottom="10"
     inkscape:zoom="1.9616769"
     inkscape:cx="129.48106"
     inkscape:cy="128.20664"
     inkscape:window-width="2486"
     inkscape:window-height="1016"
     inkscape:window-x="0"
     inkscape:window-y="0"
     inkscape:window-maximized="1"
     inkscape:current-layer="FED3_Outline" />
  <defs
     id="defs67">
    <style
       id="style2">.cls-1,.cls-2,.cls-3,.cls-4,.cls-5{fill:none;stroke-miterlimit:10;}.cls-1,.cls-2{stroke:#2a2829;}.cls-1,.cls-3,.cls-4,.cls-5{stroke-width:0.5px;}.cls-3{stroke:url(#linear-gradient);}.cls-4{stroke:url(#linear-gradient-2);}.cls-5{stroke:url(#linear-gradient-3);}</style>
    <linearGradient
       id="linear-gradient"
       x1="147.25999"
       y1="142.50999"
       x2="147.25999"
       y2="134.7"
       gradientUnits="userSpaceOnUse">
      <stop
         offset="0"
         stop-color="#fff"
         id="stop4" />
      <stop
         offset="0.02"
         stop-color="#e4e4e4"
         id="stop6" />
      <stop
         offset="0.07"
         stop-color="#b9b8b8"
         id="stop8" />
      <stop
         offset="0.11"
         stop-color="#929192"
         id="stop10" />
      <stop
         offset="0.16"
         stop-color="#727171"
         id="stop12" />
      <stop
         offset="0.22"
         stop-color="#585657"
         id="stop14" />
      <stop
         offset="0.28"
         stop-color="#434142"
         id="stop16" />
      <stop
         offset="0.34"
         stop-color="#353334"
         id="stop18" />
      <stop
         offset="0.42"
         stop-color="#2d2b2c"
         id="stop20" />
      <stop
         offset="0.55"
         stop-color="#2a2829"
         id="stop22" />
      <stop
         offset="0.56"
         stop-color="#252324"
         id="stop24" />
      <stop
         offset="0.61"
         stop-color="#141314"
         id="stop26" />
      <stop
         offset="0.67"
         stop-color="#090808"
         id="stop28" />
      <stop
         offset="0.76"
         stop-color="#020202"
         id="stop30" />
      <stop
         offset="1"
         id="stop32" />
    </linearGradient>
    <linearGradient
       id="linear-gradient-2"
       x1="172.17"
       y1="142.67999"
       x2="172.17"
       y2="134.53"
       gradientUnits="userSpaceOnUse">
      <stop
         offset="0"
         stop-color="#fff"
         id="stop35" />
      <stop
         offset="0.02"
         stop-color="#e8e8e8"
         id="stop37" />
      <stop
         offset="0.07"
         stop-color="#bcbbbc"
         id="stop39" />
      <stop
         offset="0.12"
         stop-color="#959494"
         id="stop41" />
      <stop
         offset="0.17"
         stop-color="#747273"
         id="stop43" />
      <stop
         offset="0.22"
         stop-color="#595758"
         id="stop45" />
      <stop
         offset="0.28"
         stop-color="#444243"
         id="stop47" />
      <stop
         offset="0.35"
         stop-color="#353334"
         id="stop49" />
      <stop
         offset="0.43"
         stop-color="#2d2b2c"
         id="stop51" />
      <stop
         offset="0.55"
         stop-color="#2a2829"
         id="stop53" />
      <stop
         offset="0.56"
         stop-color="#252324"
         id="stop55" />
      <stop
         offset="0.61"
         stop-color="#141314"
         id="stop57" />
      <stop
         offset="0.67"
         stop-color="#090808"
         id="stop59" />
      <stop
         offset="0.76"
         stop-color="#020202"
         id="stop61" />
      <stop
         offset="1"
         id="stop63" />
    </linearGradient>
    <linearGradient
       id="linear-gradient-3"
       x1="159.66"
       y1="142.64999"
       x2="159.66"
       y2="138.64999"
       xlink:href="#linear-gradient" />
  </defs>
  <path
     sodipodi:type="star"
     style="fill:#800033;stroke-width:0.891165;stroke-linecap:round;stroke-linejoin:round"
     id="path4111"
     inkscape:flatsided="true"
     sodipodi:sides="6"
     sodipodi:cx="106.69"
     sodipodi:cy="64.321114"
     sodipodi:r1="41.608883"
     sodipodi:r2="36.034351"
     sodipodi:arg1="1.5707963"
     sodipodi:arg2="2.0943951"
     inkscape:rounded="0"
     inkscape:randomized="0"
     d="M 106.69,105.93 70.655653,85.125556 70.655652,43.516673 106.69,22.712231 l 36.03435,20.80444 0,41.608883 z"
     transform="matrix(3.6685526,0,0,3.6685526,-249.20398,-73.321013)" />
  <g
     id="FED3_Outline"
     data-name="FED3 Outline"
     transform="translate(38.940099,92.146157)">
    <path
       class="cls-2"
       d="m 57.86,78.28 c 1.23,-1.48 4.36,-2.57 7.19,-3 2.83,-0.43 179.75,-0.51 182.64,0 2.69,0.47 5.55,0.69 7.95,2.81 a 12.79,12.79 0 0 1 4.11,5.61 c 0.92,2.06 0.19,79.31 -0.14,83.32 -0.24,2.9 -0.91,4.08 -2.09,5.41 -2,2.24 -3,2.71 -6.59,4 -3.59,1.29 -181.47,0.09 -183.75,0.07 -3.05,0 -6,0 -7.94,-1.31 -1.94,-1.31 -4.25,-2.65 -4.4,-5.73 -0.13,-2.72 -0.26,-83 0,-84.81 a 12.86,12.86 0 0 1 3.02,-6.37 z"
       transform="translate(-54.19,-36.56)"
       id="path77"
       style="fill:#4d4d4d;fill-opacity:1;stroke:#cccccc" />
    <circle
       class="cls-1"
       cx="161.66"
       cy="87.699997"
       id="circle71"
       r="19.209999"
       style="fill:#4d4d4d;fill-opacity:1;stroke:#cccccc" />
    <circle
       class="cls-1"
       cx="161.75"
       cy="87.029999"
       r="11.33"
       id="circle69"
       style="fill:#1a1a1a" />
    <ellipse
       class="cls-1"
       cx="48.419998"
       cy="87.699997"
       rx="19.6"
       ry="19.209999"
       id="ellipse73"
       style="fill:#4d4d4d;stroke:#cccccc" />
    <circle
       class="cls-1"
       cx="48.419998"
       cy="87.699997"
       r="11.33"
       id="circle75"
       style="fill:#1a1a1a" />
    <path
       class="cls-2"
       d="m 133.14,75 c 0.17,-4.27 1.87,-13.71 0,-15.5 -1.87,-1.79 -2.55,-1.62 -2.38,-3.92 0.17,-2.3 -0.11,-9.1 0,-10.21 0.07,-0.84 4,-3.13 7.18,-4.25 a 62.94,62.94 0 0 1 9.87,-2.22 c 3.77,-0.57 8.76,-1.59 13.27,-1.7 4.51,-0.11 12.59,-0.08 15.49,0 3.49,0.1 11.15,-0.12 13.45,-0.11 2,0 12.68,0.88 15.49,1.13 2.81,0.25 8.61,0.73 10.37,1.19 1.76,0.46 6.16,1.76 7.84,2.22 1.44,0.38 4.85,1.27 5.11,2.21 a 13.67,13.67 0 0 1 -0.3,4.47 c -0.19,0.21 0.81,2.42 0.89,2.89 a 23.09,23.09 0 0 1 0,4.09 c -0.14,1 -1.48,2.87 -1.61,3.57 -0.13,0.7 -0.94,15.69 -0.3,16.12"
       transform="translate(-54.19,-36.56)"
       id="path79"
       style="fill:#4d4d4d;fill-opacity:1;stroke:#cccccc" />
    <path
       class="cls-1"
       d="m 133.27,73.15 c 1.83,-1.68 5.59,-5.64 8.41,-7.3 a 104.41,104.41 0 0 1 14.1,-6.51 c 1.85,-0.57 8.55,-1.72 10.08,-2 1.53,-0.28 7.79,-1.17 9.45,-1.29 1.66,-0.12 7.08,-0.54 9.57,-0.46 2.49,0.08 8.17,0.66 10.09,1 1.92,0.34 6.28,1.23 8.42,1.76 a 79.74,79.74 0 0 1 9.45,2.84 39,39 0 0 1 6,3.21 39,39 0 0 1 8.43,9.2"
       transform="translate(-54.19,-36.56)"
       id="path121"
       style="fill:#4d4d4d;fill-opacity:1;stroke:#cccccc" />
    <path
       class="cls-1"
       d="m 140.88,75 a 62,62 0 0 1 6.56,-6.29 c 1,-0.68 5.36,-3.11 6.72,-3.83 a 58,58 0 0 1 6.55,-2.89 c 1.32,-0.39 7.2,-2.13 8.94,-2.47 1.74,-0.34 7.19,-1 8.6,-1.11 1.41,-0.11 6.17,0 7.4,0 1.23,0 7.28,0.68 8.85,0.85 a 62,62 0 0 1 7.66,1.74 c 1.23,0.43 4.68,1.53 5.79,2 1.11,0.47 5.57,3 6.3,3.58 0.73,0.58 4.38,3.15 5,3.83 0.62,0.68 4.59,4.5 4.59,4.5"
       transform="translate(-54.19,-36.56)"
       id="path81"
       style="fill:#4d4d4d;fill-opacity:1;stroke:#cccccc" />
    <rect
       class="cls-1"
       x="56.990002"
       y="113.63"
       width="96.510002"
       height="12.94"
       id="rect83"
       style="stroke:#cccccc" />
    <ellipse
       class="cls-1"
       cx="198.31"
       cy="156.66"
       rx="2.3599999"
       ry="2.98"
       transform="rotate(-1.04,-1842.6329,3123.6982)"
       id="ellipse85"
       style="fill:#1a1a1a;fill-opacity:1" />
    <ellipse
       class="cls-1"
       cx="187.21001"
       cy="156.66"
       rx="2.3599999"
       ry="2.98"
       transform="rotate(-1.04,-1853.651,3123.5982)"
       id="ellipse87"
       style="fill:#1a1a1a;fill-opacity:1" />
    <ellipse
       class="cls-1"
       cx="176.10001"
       cy="156.66"
       rx="2.3599999"
       ry="2.98"
       transform="rotate(-1.04,-1864.6691,3123.4982)"
       id="ellipse89"
       style="fill:#1a1a1a;fill-opacity:1" />
    <ellipse
       class="cls-1"
       cx="164.99001"
       cy="156.66"
       rx="2.3599999"
       ry="2.98"
       transform="rotate(-1.04,-1876.2382,3123.3932)"
       id="ellipse91"
       style="fill:#1a1a1a;fill-opacity:1" />
    <ellipse
       class="cls-1"
       cx="153.88"
       cy="156.66"
       rx="2.3599999"
       ry="2.98"
       transform="rotate(-1.04,-1887.2613,3123.8441)"
       id="ellipse93"
       style="fill:#1a1a1a;fill-opacity:1" />
    <ellipse
       class="cls-1"
       cx="142.78"
       cy="156.66"
       rx="2.3599999"
       ry="2.98"
       transform="rotate(-1.04,-1898.2794,3123.7441)"
       id="ellipse95"
       style="fill:#1a1a1a;fill-opacity:1" />
    <ellipse
       class="cls-1"
       cx="131.67"
       cy="156.66"
       rx="2.3599999"
       ry="2.98"
       transform="rotate(-1.04,-1909.2975,3123.6441)"
       id="ellipse97"
       style="fill:#1a1a1a;fill-opacity:1" />
    <ellipse
       class="cls-1"
       cx="120.56"
       cy="156.66"
       rx="2.3599999"
       ry="2.98"
       transform="rotate(-1.04,-1920.3156,3123.5441)"
       id="ellipse99"
       style="fill:#1a1a1a;fill-opacity:1" />
    <path
       class="cls-1"
       d="m 146.42,118.87 c 0,0 -6.6,0.22 -7.11,0.19 -0.51,-0.03 -0.45,13.33 -0.51,14.45 -0.06,1.12 0.51,10.72 0.51,10.72 0,0 40,0 40.6,0 0.6,0 1.18,-11.36 1.14,-11.93 -0.04,-0.57 -0.41,-11.43 -0.41,-12.07 0,-0.64 -1.28,-1 -1.82,-1.14 a 6.25,6.25 0 0 0 -1.09,0 2.61,2.61 0 0 1 -0.68,0 c -0.31,-0.06 -4.46,-0.17 -4.89,-0.17"
       transform="translate(-54.19,-36.56)"
       id="path103"
       style="fill:#1a1a1a;fill-opacity:1;stroke:#b4b4b4;stroke-opacity:1" />
    <path
       class="cls-1"
       d="m 146.42,118.87 a 24.09,24.09 0 0 1 1.78,-3.7 17.94,17.94 0 0 1 2.34,-2.51 c 0.56,-0.34 2.07,-1.43 2.64,-1.66 0.57,-0.23 2.09,-0.66 2.81,-0.89 a 14.64,14.64 0 0 1 2.89,-0.39 c 0.39,0 2.3,0.17 3.37,0.34 a 13.64,13.64 0 0 1 2.8,0.81 c 0.54,0.24 2,1 2.47,1.32 a 18.42,18.42 0 0 1 2,1.83 13.27,13.27 0 0 1 1.2,1.49 22.23,22.23 0 0 1 1,3.36 c 0,0.36 -8.81,1 -9.07,0.64 a 4.24,4.24 0 0 0 -0.89,-1.19 2.3,2.3 0 0 0 -1.46,-0.59 6.93,6.93 0 0 0 -1.76,0 2.7,2.7 0 0 0 -1.55,0.7 3.88,3.88 0 0 1 -1.06,1.23 c -0.51,0.32 -8.73,0 -8.73,0 z"
       transform="translate(-54.19,-36.56)"
       id="path101"
       style="stroke:#b4b4b4;stroke-opacity:1" />
    <rect
       class="cls-1"
       x="115.04"
       y="83.459999"
       width="7.8299999"
       height="9.7399998"
       id="rect105"
       style="stroke:#b4b4b4;stroke-opacity:1;fill:#4d4d4d;fill-opacity:1" />
    <rect
       class="cls-1"
       x="88.269997"
       y="83.459999"
       width="7.79"
       height="9.7399998"
       id="rect107"
       style="stroke:#b4b4b4;stroke-opacity:1;fill:#4d4d4d;fill-opacity:1" />
    <path
       class="cls-1"
       d="m 142,119.77 c 0,0.66 -0.72,9.41 -0.12,9.84 0.6,0.43 10.81,1 11,0.45 0.19,-0.55 0.25,-1.14 0.74,-1.19 0.49,-0.05 5.62,0.09 6.23,0.09 0.61,0 5.92,-0.13 6.41,0 0.49,0.13 0.32,1.21 0.72,1.15 0.4,-0.06 11.11,0.23 11.24,-0.09 a 26.09,26.09 0 0 0 0,-4.13 c -0.09,-1.38 -1,-5.56 -1,-6"
       transform="translate(-54.19,-36.56)"
       id="path109"
       style="stroke:#b4b4b4;stroke-opacity:1" />
    <path
       class="cls-3"
       d="m 142.14,142.49 c -0.1,-1.1 -0.69,-7.23 -0.36,-7.32 0.33,-0.09 11,-0.36 11,-0.13 0,0.23 0,7 0,7.24"
       transform="translate(-54.19,-36.56)"
       id="path111"
       style="stroke:#b4b4b4;stroke-opacity:1" />
    <path
       class="cls-4"
       d="m 166.66,142.49 c 0,-0.78 -0.32,-7.52 0.13,-7.54 0.45,-0.02 11,-0.36 11,0 0,0.36 -0.71,7.48 -0.75,7.69"
       transform="translate(-54.19,-36.56)"
       id="path113"
       style="stroke:#b4b4b4;stroke-opacity:1" />
    <path
       class="cls-5"
       d="m 158.63,142.64 c 0,-0.55 -0.43,-3.6 0,-3.6 0.43,0 1.93,-0.32 2,0 0.07,0.32 0.3,3.15 0.25,3.45"
       transform="translate(-54.19,-36.56)"
       id="path115"
       style="stroke:#b4b4b4;stroke-opacity:1" />
    <path
       class="cls-1"
       d="m 130.64,50.11 c 1.9,-0.77 7.18,-3.54 8.29,-3.83 1.11,-0.29 9.44,-1.32 11.66,-1.71 2.22,-0.39 9.83,-0.93 11.15,-1 1.32,-0.07 14.17,-0.63 15.31,-0.59 1.14,0.04 12.13,-0.09 14,0 1.87,0.09 10.21,0.51 12.17,0.59 1.96,0.08 11.36,1.24 12.6,1.45 1.24,0.21 12.72,3.28 12.72,3.28"
       transform="translate(-54.19,-36.56)"
       id="path117"
       style="stroke:#cccccc" />
    <path
       class="cls-1"
       d="m 130.76,55.55 a 7.92,7.92 0 0 1 3.57,-2 c 1.2,-0.31 5.41,-0.89 8.51,-1.28 3.1,-0.39 11.53,-0.89 13.7,-0.85 2.17,0.04 8.85,-0.42 10.73,-0.42 1.88,0 10.14,0 12.3,0 2.16,0 11.7,0 13.14,0 1.44,0 8.6,0.34 10.39,0.42 1.79,0.08 7.32,0.39 9.36,0.43 2.04,0.04 8.72,0.47 10.21,0.76 1.49,0.29 6,1.28 6.81,2"
       transform="translate(-54.19,-36.56)"
       id="path119"
       style="stroke:#cccccc" />
  </g>
  <text
     xml:space="preserve"
     style="font-style:normal;font-variant:normal;font-weight:normal;font-stretch:normal;font-size:29.3333px;line-height:1.25;font-family:Mallanna;-inkscape-font-specification:Mallanna;fill:#b4b4b4;fill-opacity:1"
     x="42.695656"
     y="126.36235"
     id="text3513"><tspan
       sodipodi:role="line"
       id="tspan3511"
       x="42.695656"
       y="126.36235"
       style="font-style:normal;font-variant:normal;font-weight:normal;font-stretch:normal;font-family:Manjari;-inkscape-font-specification:Manjari">fed3</tspan></text>
</svg>
